<svg width="17" height="18" viewBox="0 0 17 18" fill="none" xmlns="http://www.w3.org/2000/svg">
<path d="M15.5 5.47506L14.525 4.68006V2.05506C14.5332 1.9585 14.5212 1.86129 14.4899 1.76959C14.4586 1.67789 14.4085 1.59369 14.343 1.52233C14.2774 1.45098 14.1977 1.39401 14.109 1.35504C14.0203 1.31607 13.9244 1.29595 13.8275 1.29595C13.7306 1.29595 13.6347 1.31607 13.546 1.35504C13.4573 1.39401 13.3776 1.45098 13.3121 1.52233C13.2465 1.59369 13.1964 1.67789 13.1651 1.76959C13.1338 1.86129 13.1218 1.9585 13.13 2.05506V3.52006L10.605 1.47506C9.97989 0.964116 9.19736 0.684998 8.39 0.684998C7.58264 0.684998 6.80011 0.964116 6.175 1.47506L1.28 5.47506C0.879763 5.79979 0.55713 6.20984 0.335674 6.67525C0.114217 7.14065 -0.000466601 7.64965 1.42677e-06 8.16506V13.8151C1.42677e-06 14.7433 0.36875 15.6336 1.02513 16.2899C1.6815 16.9463 2.57174 17.3151 3.5 17.3151H13.285C14.2133 17.3151 15.1035 16.9463 15.7599 16.2899C16.4163 15.6336 16.785 14.7433 16.785 13.8151V8.14506C16.7819 7.63263 16.665 7.12729 16.4428 6.66554C16.2206 6.20379 15.8985 5.79717 15.5 5.47506ZM6.295 15.8901V11.0501C6.3213 10.5115 6.55377 10.0037 6.94425 9.63179C7.33472 9.25992 7.85328 9.0525 8.3925 9.0525C8.93172 9.0525 9.45028 9.25992 9.84076 9.63179C10.2312 10.0037 10.4637 10.5115 10.49 11.0501V15.8901H6.295ZM15.39 13.7951C15.3887 14.3503 15.1675 14.8824 14.7749 15.275C14.3823 15.6676 13.8502 15.8887 13.295 15.8901H11.89V11.0501C11.89 10.1218 11.5213 9.23156 10.8649 8.57518C10.2085 7.91881 9.31826 7.55006 8.39 7.55006C7.46174 7.55006 6.57151 7.91881 5.91513 8.57518C5.25875 9.23156 4.89 10.1218 4.89 11.0501V15.8901H3.49C2.93391 15.8901 2.40053 15.6695 2.00684 15.2768C1.61316 14.884 1.39133 14.3511 1.39 13.7951V8.14506C1.38967 7.83402 1.4586 7.52682 1.59179 7.24574C1.72497 6.96467 1.91908 6.71677 2.16 6.52006L7.055 2.52006C7.42984 2.21641 7.8976 2.05072 8.38 2.05072C8.8624 2.05072 9.33016 2.21641 9.705 2.52006L14.6 6.52006C14.8446 6.71481 15.0425 6.96183 15.1792 7.24301C15.3159 7.5242 15.3879 7.83241 15.39 8.14506V13.7951Z" fill="white"/>
</svg>
