<svg width="12" height="13" viewBox="0 0 12 13" fill="none" xmlns="http://www.w3.org/2000/svg">
<path d="M1.43004 12.596C1.23453 12.5956 1.04255 12.5438 0.873291 12.446C0.647362 12.3167 0.473236 12.1132 0.380581 11.8699C0.287926 11.6267 0.282475 11.3589 0.365158 11.1121C0.447841 10.8653 0.613542 10.6548 0.834026 10.5165C1.05451 10.3781 1.31613 10.3206 1.57432 10.3535C1.8325 10.3865 2.07127 10.5079 2.24995 10.6972C2.42862 10.8865 2.53614 11.1318 2.55418 11.3915C2.57222 11.6511 2.49967 11.909 2.34889 12.1212C2.19812 12.3333 1.97844 12.4866 1.72729 12.555C1.63047 12.5818 1.53051 12.5956 1.43004 12.596ZM1.43229 11.096C1.3985 11.096 1.36486 11.1005 1.33229 11.1095C1.28477 11.1221 1.24025 11.1441 1.20132 11.1742C1.16239 11.2042 1.12983 11.2417 1.10554 11.2845C1.05612 11.3708 1.043 11.4732 1.06906 11.5691C1.09513 11.6651 1.15825 11.7468 1.24454 11.7962C1.29439 11.8249 1.35016 11.8418 1.40756 11.8455C1.46495 11.8492 1.52243 11.8396 1.57554 11.8175C1.62865 11.7954 1.67597 11.7615 1.71384 11.7182C1.75172 11.6749 1.77913 11.6235 1.79395 11.5679C1.80878 11.5123 1.81062 11.4541 1.79934 11.3977C1.78806 11.3413 1.76396 11.2882 1.72891 11.2427C1.69385 11.1971 1.64877 11.1601 1.59717 11.1348C1.54556 11.1094 1.4888 11.0962 1.43129 11.0962L1.43229 11.096ZM6.15004 6.96848C5.54186 6.96848 4.94734 6.78814 4.44166 6.45025C3.93598 6.11237 3.54185 5.63212 3.30911 5.07023C3.07637 4.50835 3.01548 3.89007 3.13413 3.29358C3.25278 2.69709 3.54564 2.14918 3.97569 1.71913C4.40573 1.28908 4.95365 0.996218 5.55014 0.877568C6.14663 0.758919 6.76491 0.819814 7.32679 1.05255C7.88868 1.28529 8.36893 1.67942 8.70681 2.1851C9.04469 2.69079 9.22504 3.28531 9.22504 3.89348C9.22438 4.70882 8.90019 5.49057 8.32366 6.0671C7.74713 6.64364 6.96538 6.96782 6.15004 6.96848ZM6.15004 1.57023C5.6902 1.57023 5.24068 1.70659 4.85834 1.96207C4.476 2.21754 4.17799 2.58066 4.00202 3.00549C3.82605 3.43033 3.78 3.89781 3.86971 4.34882C3.95943 4.79982 4.18086 5.2141 4.50602 5.53926C4.83117 5.86441 5.24545 6.08585 5.69646 6.17556C6.14746 6.26527 6.61494 6.21923 7.03978 6.04325C7.46462 5.86728 7.82773 5.56928 8.08321 5.18693C8.33868 4.80459 8.47504 4.35507 8.47504 3.89523C8.47458 3.27875 8.22947 2.68764 7.79355 2.25172C7.35763 1.8158 6.76653 1.5707 6.15004 1.57023ZM10.8708 12.7695H10.866C10.8168 12.7689 10.7681 12.7585 10.7228 12.7391C10.6776 12.7197 10.6366 12.6915 10.6022 12.6562C10.5678 12.6209 10.5407 12.5792 10.5224 12.5334C10.5042 12.4877 10.4951 12.4388 10.4958 12.3895C10.4958 12.372 10.499 10.5675 9.29854 9.37848C8.55729 8.64398 7.50304 8.28898 6.15829 8.30973C5.39429 8.27531 4.63271 8.41839 3.93329 8.72773C3.88874 8.75007 3.84019 8.7633 3.79047 8.76665C3.74074 8.77 3.69085 8.76341 3.64371 8.74726C3.59656 8.73111 3.55311 8.70573 3.51589 8.67259C3.47867 8.63946 3.44842 8.59924 3.42692 8.55428C3.40543 8.50932 3.3931 8.46053 3.39068 8.41075C3.38825 8.36098 3.39577 8.31122 3.4128 8.26438C3.42982 8.21755 3.45601 8.17457 3.48984 8.13798C3.52366 8.10138 3.56444 8.07189 3.60979 8.05123C4.40929 7.68911 5.28298 7.5208 6.15979 7.55998C7.70204 7.52648 8.94229 7.96473 9.83479 8.85123C11.2598 10.2685 11.2498 12.313 11.2485 12.3995C11.2472 12.4985 11.2068 12.5931 11.136 12.6624C11.0652 12.7317 10.9699 12.7702 10.8708 12.7695Z" fill="#21334F"/>
</svg>
