<svg width="202" height="48" viewBox="0 0 202 48" fill="none" xmlns="http://www.w3.org/2000/svg">
<path d="M69.0753 19.2344C68.9825 18.366 68.5914 17.6899 67.902 17.206C67.2192 16.7221 66.331 16.4801 65.2372 16.4801C64.4683 16.4801 63.8087 16.5961 63.2585 16.8281C62.7083 17.0601 62.2874 17.375 61.9957 17.7727C61.7041 18.1705 61.5549 18.6245 61.5483 19.1349C61.5483 19.5592 61.6444 19.9271 61.8366 20.2386C62.0355 20.5502 62.304 20.8153 62.642 21.0341C62.9801 21.2462 63.3546 21.4252 63.7656 21.571C64.1766 21.7169 64.5909 21.8395 65.0085 21.9389L66.9176 22.4162C67.6866 22.5952 68.4257 22.8371 69.1349 23.142C69.8509 23.447 70.4905 23.8314 71.054 24.2955C71.6241 24.7595 72.0748 25.3196 72.4062 25.9759C72.7377 26.6321 72.9034 27.401 72.9034 28.2827C72.9034 29.4759 72.5985 30.5265 71.9886 31.4347C71.3788 32.3362 70.4972 33.0421 69.3438 33.5526C68.197 34.0563 66.8082 34.3082 65.1776 34.3082C63.5933 34.3082 62.2178 34.063 61.0511 33.5724C59.8911 33.0819 58.983 32.366 58.3267 31.4247C57.6771 30.4834 57.3258 29.3366 57.2727 27.9844H60.902C60.955 28.6937 61.1738 29.2836 61.5582 29.7543C61.9427 30.2249 62.4432 30.5762 63.0597 30.8082C63.6828 31.0402 64.3788 31.1562 65.1477 31.1562C65.9498 31.1562 66.6525 31.0369 67.2557 30.7983C67.8655 30.553 68.3428 30.215 68.6875 29.7841C69.0322 29.3466 69.2079 28.8362 69.2145 28.2528C69.2079 27.7225 69.0521 27.285 68.7472 26.9403C68.4422 26.589 68.0147 26.2973 67.4645 26.0653C66.9209 25.8267 66.2846 25.6146 65.5554 25.429L63.2386 24.8324C61.5616 24.4015 60.2358 23.7486 59.2614 22.8736C58.2936 21.992 57.8097 20.822 57.8097 19.3636C57.8097 18.1638 58.1345 17.1132 58.7841 16.2116C59.4403 15.3101 60.3319 14.6108 61.4588 14.1136C62.5857 13.6098 63.8617 13.358 65.2869 13.358C66.732 13.358 67.9981 13.6098 69.0852 14.1136C70.179 14.6108 71.0374 15.3035 71.6605 16.1918C72.2836 17.0734 72.6051 18.0876 72.625 19.2344H69.0753ZM82.695 34.2983C81.1703 34.2983 79.8612 33.9635 78.7674 33.294C77.6803 32.6245 76.8417 31.6998 76.2518 30.5199C75.6684 29.3333 75.3768 27.9678 75.3768 26.4233C75.3768 24.8722 75.6751 23.5033 76.2717 22.3168C76.8683 21.1236 77.7101 20.1955 78.7972 19.5327C79.891 18.8632 81.1836 18.5284 82.6751 18.5284C83.9147 18.5284 85.0117 18.7571 85.9663 19.2145C86.9274 19.6652 87.6931 20.3049 88.2631 21.1335C88.8332 21.9555 89.158 22.9167 89.2376 24.017H85.7972C85.658 23.2812 85.3266 22.6681 84.8029 22.1776C84.2859 21.6804 83.5932 21.4318 82.7248 21.4318C81.989 21.4318 81.3427 21.6307 80.7859 22.0284C80.229 22.4195 79.7949 22.983 79.4833 23.7188C79.1784 24.4545 79.0259 25.3362 79.0259 26.3636C79.0259 27.4044 79.1784 28.2992 79.4833 29.0483C79.7882 29.7907 80.2158 30.3641 80.766 30.7685C81.3228 31.1662 81.9757 31.3651 82.7248 31.3651C83.2551 31.3651 83.729 31.2656 84.1467 31.0668C84.5709 30.8613 84.9255 30.5663 85.2106 30.1818C85.4956 29.7973 85.6912 29.33 85.7972 28.7798H89.2376C89.1514 29.8603 88.8332 30.8182 88.283 31.6534C87.7328 32.482 86.9838 33.1316 86.0359 33.6023C85.088 34.0663 83.9743 34.2983 82.695 34.2983ZM98.8551 34.2983C97.3636 34.2983 96.071 33.9702 94.9773 33.3139C93.8835 32.6577 93.035 31.7396 92.4318 30.5597C91.8352 29.3797 91.5369 28.0009 91.5369 26.4233C91.5369 24.8456 91.8352 23.4635 92.4318 22.277C93.035 21.0904 93.8835 20.169 94.9773 19.5128C96.071 18.8565 97.3636 18.5284 98.8551 18.5284C100.347 18.5284 101.639 18.8565 102.733 19.5128C103.827 20.169 104.672 21.0904 105.268 22.277C105.872 23.4635 106.173 24.8456 106.173 26.4233C106.173 28.0009 105.872 29.3797 105.268 30.5597C104.672 31.7396 103.827 32.6577 102.733 33.3139C101.639 33.9702 100.347 34.2983 98.8551 34.2983ZM98.875 31.4148C99.6837 31.4148 100.36 31.1927 100.903 30.7486C101.447 30.2978 101.851 29.6946 102.116 28.9389C102.388 28.1832 102.524 27.3414 102.524 26.4134C102.524 25.4787 102.388 24.6335 102.116 23.8778C101.851 23.1155 101.447 22.509 100.903 22.0582C100.36 21.6075 99.6837 21.3821 98.875 21.3821C98.0464 21.3821 97.357 21.6075 96.8068 22.0582C96.2633 22.509 95.8556 23.1155 95.5838 23.8778C95.3187 24.6335 95.1861 25.4787 95.1861 26.4134C95.1861 27.3414 95.3187 28.1832 95.5838 28.9389C95.8556 29.6946 96.2633 30.2978 96.8068 30.7486C97.357 31.1927 98.0464 31.4148 98.875 31.4148ZM109.228 34V18.7273H112.718V21.2727H112.877C113.156 20.3911 113.633 19.7116 114.309 19.2344C114.992 18.7505 115.771 18.5085 116.646 18.5085C116.845 18.5085 117.067 18.5185 117.312 18.5384C117.564 18.5516 117.773 18.5748 117.939 18.608V21.919C117.786 21.866 117.544 21.8196 117.213 21.7798C116.888 21.7334 116.573 21.7102 116.268 21.7102C115.612 21.7102 115.022 21.8527 114.498 22.1378C113.981 22.4162 113.574 22.804 113.275 23.3011C112.977 23.7983 112.828 24.3717 112.828 25.0213V34H109.228ZM126.462 34.2983C124.931 34.2983 123.609 33.9801 122.495 33.3438C121.388 32.7008 120.536 31.7926 119.94 30.6193C119.343 29.4394 119.045 28.0507 119.045 26.4531C119.045 24.8821 119.343 23.5033 119.94 22.3168C120.543 21.1236 121.385 20.1955 122.465 19.5327C123.546 18.8632 124.815 18.5284 126.273 18.5284C127.215 18.5284 128.103 18.6809 128.938 18.9858C129.78 19.2841 130.522 19.7481 131.165 20.3778C131.815 21.0076 132.326 21.8097 132.697 22.7841C133.068 23.7519 133.254 24.9053 133.254 26.2443V27.348H120.735V24.9219H129.803C129.797 24.2325 129.647 23.6193 129.356 23.0824C129.064 22.5388 128.656 22.1113 128.133 21.7997C127.616 21.4882 127.013 21.3324 126.323 21.3324C125.587 21.3324 124.941 21.5114 124.384 21.8693C123.827 22.2206 123.393 22.6847 123.082 23.2614C122.777 23.8314 122.621 24.4579 122.614 25.1406V27.2585C122.614 28.1468 122.777 28.9091 123.102 29.5455C123.426 30.1752 123.88 30.6591 124.464 30.9972C125.047 31.3286 125.73 31.4943 126.512 31.4943C127.036 31.4943 127.51 31.4214 127.934 31.2756C128.358 31.1231 128.726 30.901 129.038 30.6094C129.349 30.3177 129.585 29.9564 129.744 29.5256L133.104 29.9034C132.892 30.7917 132.488 31.5672 131.891 32.2301C131.301 32.8864 130.546 33.3968 129.624 33.7614C128.703 34.1193 127.649 34.2983 126.462 34.2983ZM142.961 34.2983C141.436 34.2983 140.127 33.9635 139.033 33.294C137.946 32.6245 137.107 31.6998 136.517 30.5199C135.934 29.3333 135.642 27.9678 135.642 26.4233C135.642 24.8722 135.941 23.5033 136.537 22.3168C137.134 21.1236 137.976 20.1955 139.063 19.5327C140.157 18.8632 141.449 18.5284 142.941 18.5284C144.18 18.5284 145.277 18.7571 146.232 19.2145C147.193 19.6652 147.959 20.3049 148.529 21.1335C149.099 21.9555 149.424 22.9167 149.503 24.017H146.063C145.924 23.2812 145.592 22.6681 145.069 22.1776C144.551 21.6804 143.859 21.4318 142.99 21.4318C142.255 21.4318 141.608 21.6307 141.051 22.0284C140.495 22.4195 140.06 22.983 139.749 23.7188C139.444 24.4545 139.292 25.3362 139.292 26.3636C139.292 27.4044 139.444 28.2992 139.749 29.0483C140.054 29.7907 140.481 30.3641 141.032 30.7685C141.588 31.1662 142.241 31.3651 142.99 31.3651C143.521 31.3651 143.995 31.2656 144.412 31.0668C144.837 30.8613 145.191 30.5663 145.476 30.1818C145.761 29.7973 145.957 29.33 146.063 28.7798H149.503C149.417 29.8603 149.099 30.8182 148.549 31.6534C147.998 32.482 147.249 33.1316 146.301 33.6023C145.354 34.0663 144.24 34.2983 142.961 34.2983ZM156.854 34.3082C155.886 34.3082 155.014 34.1359 154.239 33.7912C153.47 33.4399 152.86 32.9228 152.409 32.2401C151.965 31.5573 151.743 30.7154 151.743 29.7145C151.743 28.8527 151.902 28.1402 152.22 27.5767C152.538 27.0133 152.973 26.5625 153.523 26.2244C154.073 25.8864 154.693 25.6312 155.382 25.4588C156.078 25.2798 156.797 25.1506 157.54 25.071C158.435 24.9782 159.161 24.8954 159.717 24.8224C160.274 24.7429 160.679 24.6236 160.93 24.4645C161.189 24.2988 161.318 24.0436 161.318 23.6989V23.6392C161.318 22.8902 161.096 22.3101 160.652 21.8991C160.208 21.4882 159.568 21.2827 158.733 21.2827C157.851 21.2827 157.152 21.4749 156.635 21.8594C156.125 22.2438 155.78 22.6979 155.601 23.2216L152.24 22.7443C152.505 21.8163 152.943 21.0407 153.553 20.4176C154.162 19.7879 154.908 19.3172 155.79 19.0057C156.671 18.6875 157.646 18.5284 158.713 18.5284C159.449 18.5284 160.181 18.6146 160.911 18.7869C161.64 18.9593 162.306 19.2443 162.909 19.642C163.512 20.0331 163.996 20.5668 164.361 21.2429C164.732 21.919 164.918 22.7642 164.918 23.7784V34H161.457V31.902H161.338C161.119 32.3262 160.811 32.724 160.413 33.0952C160.022 33.4598 159.528 33.7547 158.932 33.9801C158.342 34.1989 157.649 34.3082 156.854 34.3082ZM157.788 31.6634C158.511 31.6634 159.137 31.5208 159.668 31.2358C160.198 30.9441 160.606 30.5597 160.891 30.0824C161.182 29.6051 161.328 29.0848 161.328 28.5213V26.7216C161.215 26.8144 161.023 26.9006 160.751 26.9801C160.486 27.0597 160.188 27.1293 159.857 27.1889C159.525 27.2486 159.197 27.3016 158.872 27.348C158.547 27.3944 158.266 27.4342 158.027 27.4673C157.49 27.5402 157.009 27.6596 156.585 27.8253C156.161 27.991 155.826 28.223 155.581 28.5213C155.336 28.813 155.213 29.1908 155.213 29.6548C155.213 30.3177 155.455 30.8182 155.939 31.1562C156.423 31.4943 157.039 31.6634 157.788 31.6634ZM168.537 34V18.7273H172.027V21.2727H172.186C172.464 20.3911 172.942 19.7116 173.618 19.2344C174.301 18.7505 175.08 18.5085 175.955 18.5085C176.153 18.5085 176.375 18.5185 176.621 18.5384C176.873 18.5516 177.081 18.5748 177.247 18.608V21.919C177.095 21.866 176.853 21.8196 176.521 21.7798C176.196 21.7334 175.882 21.7102 175.577 21.7102C174.92 21.7102 174.33 21.8527 173.807 22.1378C173.29 22.4162 172.882 22.804 172.584 23.3011C172.286 23.7983 172.136 24.3717 172.136 25.0213V34H168.537ZM184.677 34.2685C183.477 34.2685 182.404 33.9602 181.456 33.3438C180.508 32.7273 179.759 31.8324 179.208 30.6591C178.658 29.4858 178.383 28.0606 178.383 26.3835C178.383 24.6866 178.662 23.2547 179.218 22.0881C179.782 20.9148 180.541 20.0298 181.495 19.4332C182.45 18.83 183.514 18.5284 184.687 18.5284C185.582 18.5284 186.318 18.6809 186.895 18.9858C187.471 19.2841 187.929 19.6454 188.267 20.0696C188.605 20.4872 188.867 20.8816 189.052 21.2528H189.201V13.6364H192.811V34H189.271V31.5938H189.052C188.867 31.965 188.598 32.3594 188.247 32.777C187.895 33.188 187.431 33.5393 186.855 33.831C186.278 34.1226 185.552 34.2685 184.677 34.2685ZM185.681 31.3153C186.444 31.3153 187.093 31.1098 187.63 30.6989C188.167 30.2812 188.575 29.7012 188.853 28.9588C189.132 28.2164 189.271 27.3513 189.271 26.3636C189.271 25.3759 189.132 24.5175 188.853 23.7884C188.582 23.0592 188.177 22.4924 187.64 22.0881C187.11 21.6837 186.457 21.4815 185.681 21.4815C184.879 21.4815 184.21 21.6903 183.673 22.108C183.136 22.5256 182.732 23.1023 182.46 23.8381C182.188 24.5739 182.052 25.4157 182.052 26.3636C182.052 27.3182 182.188 28.17 182.46 28.919C182.738 29.6615 183.146 30.2481 183.683 30.679C184.226 31.1032 184.893 31.3153 185.681 31.3153Z" fill="#21334F"/>
<g clip-path="url(#clip0_828_1449)">
<circle cx="24" cy="24" r="24" fill="url(#paint0_linear_828_1449)"/>
<g clip-path="url(#clip1_828_1449)">
<path d="M18.8 18.3996C18.2276 18.3829 17.6843 18.1439 17.2854 17.7332C16.8864 17.3224 16.6632 16.7724 16.6632 16.1998C16.6632 15.6272 16.8864 15.0771 17.2854 14.6664C17.6843 14.2557 18.2276 14.0166 18.8 14H32.801C33.3734 14.0166 33.9168 14.2557 34.3157 14.6664C34.7146 15.0771 34.9378 15.6272 34.9378 16.1998C34.9378 16.7724 34.7146 17.3224 34.3157 17.7332C33.9168 18.1439 33.3734 18.3829 32.801 18.3996H18.8ZM13.2007 22.2234C13.636 22.2234 14.0615 22.0943 14.4234 21.8525C14.7853 21.6107 15.0674 21.267 15.2339 20.8649C15.4005 20.4627 15.4441 20.0203 15.3592 19.5934C15.2743 19.1665 15.0646 18.7743 14.7569 18.4666C14.4491 18.1588 14.057 17.9492 13.6301 17.8643C13.2032 17.7794 12.7607 17.8229 12.3585 17.9895C11.9564 18.1561 11.6127 18.4381 11.3709 18.8C11.1291 19.162 11 19.5874 11 20.0227C11.0015 20.6054 11.234 21.1637 11.6466 21.5752C12.0591 21.9868 12.618 22.2179 13.2007 22.2179V22.2234ZM15.2009 29.9993C14.6172 29.9993 14.0574 30.2311 13.6447 30.6438C13.232 31.0566 13.0001 31.6163 13.0001 32.2C13.0001 32.7837 13.232 33.3434 13.6447 33.7561C14.0574 34.1688 14.6172 34.4007 15.2009 34.4007H29.2C29.7837 34.4007 30.3434 34.1688 30.7561 33.7561C31.1689 33.3434 31.4007 32.7837 31.4007 32.2C31.4007 31.6163 31.1689 31.0566 30.7561 30.6438C30.3434 30.2311 29.7837 29.9993 29.2 29.9993H15.2009ZM18.4007 22.0006C18.1065 21.992 17.8135 22.0426 17.5391 22.1493C17.2648 22.256 17.0146 22.4167 16.8034 22.6218C16.5923 22.8269 16.4244 23.0723 16.3098 23.3434C16.1951 23.6146 16.1361 23.906 16.1361 24.2003C16.1361 24.4947 16.1951 24.7861 16.3098 25.0573C16.4244 25.3284 16.5923 25.5738 16.8034 25.7789C17.0146 25.984 17.2648 26.1447 17.5391 26.2514C17.8135 26.3581 18.1065 26.4087 18.4007 26.4001H29.5993C29.8936 26.4087 30.1865 26.3581 30.461 26.2514C30.7353 26.1447 30.9855 25.984 31.1966 25.7789C31.4078 25.5738 31.5757 25.3284 31.6902 25.0573C31.8048 24.7861 31.8639 24.4947 31.8639 24.2003C31.8639 23.906 31.8048 23.6146 31.6902 23.3434C31.5757 23.0723 31.4078 22.8269 31.1966 22.6218C30.9855 22.4167 30.7353 22.256 30.461 22.1493C30.1865 22.0426 29.8936 21.992 29.5993 22.0006H18.4007ZM34.8011 26.1773C34.3658 26.1769 33.94 26.3057 33.5778 26.5474C33.2155 26.7891 32.9332 27.1327 32.7665 27.535C32.5997 27.9372 32.5559 28.3798 32.6407 28.8069C32.7256 29.2339 32.9353 29.6262 33.2432 29.9341C33.5511 30.242 33.9433 30.4516 34.3705 30.5365C34.7974 30.6214 35.2402 30.5776 35.6422 30.4108C36.0445 30.244 36.3883 29.9617 36.6299 29.5995C36.8715 29.2373 37.0004 28.8116 37 28.3761C37.0007 28.0869 36.9445 27.8004 36.8342 27.533C36.724 27.2655 36.5623 27.0225 36.358 26.8177C36.1537 26.6129 35.911 26.4505 35.6439 26.3396C35.3769 26.2288 35.0905 26.1717 34.8011 26.1717V26.1773Z" fill="white"/>
</g>
</g>
<defs>
<linearGradient id="paint0_linear_828_1449" x1="20.5" y1="27.5" x2="28.5" y2="52" gradientUnits="userSpaceOnUse">
<stop stop-color="#14A800"/>
<stop offset="1" stop-color="#B8D344"/>
</linearGradient>
<clipPath id="clip0_828_1449">
<rect width="48" height="48" fill="white"/>
</clipPath>
<clipPath id="clip1_828_1449">
<rect width="26" height="20.4286" fill="white" transform="translate(11 14)"/>
</clipPath>
</defs>
</svg>
