<svg width="24" height="24" viewBox="0 0 24 24" fill="none" xmlns="http://www.w3.org/2000/svg">
<path d="M3.8325 14.3325C5.1207 14.3325 6.165 13.2882 6.165 12C6.165 10.7118 5.1207 9.66748 3.8325 9.66748C2.5443 9.66748 1.5 10.7118 1.5 12C1.5 13.2882 2.5443 14.3325 3.8325 14.3325Z" fill="#21334F"/>
<path d="M12.0005 14.3325C13.2887 14.3325 14.333 13.2882 14.333 12C14.333 10.7118 13.2887 9.66748 12.0005 9.66748C10.7123 9.66748 9.66797 10.7118 9.66797 12C9.66797 13.2882 10.7123 14.3325 12.0005 14.3325Z" fill="#21334F"/>
<path d="M20.1675 14.3325C21.4557 14.3325 22.5 13.2882 22.5 12C22.5 10.7118 21.4557 9.66748 20.1675 9.66748C18.8793 9.66748 17.835 10.7118 17.835 12C17.835 13.2882 18.8793 14.3325 20.1675 14.3325Z" fill="#21334F"/>
</svg>
